<mxfile host="Electron" modified="2024-01-18T15:00:18.128Z" agent="Mozilla/5.0 (Windows NT 10.0; Win64; x64) AppleWebKit/537.36 (KHTML, like Gecko) draw.io/22.1.16 Chrome/120.0.6099.109 Electron/28.1.0 Safari/537.36" etag="mFtetkxaUBqamuyJs1h0" version="22.1.16" type="device">
  <diagram name="Page-1" id="7R23muGsExu0PN3QFVto">
    <mxGraphModel dx="1646" dy="482" grid="1" gridSize="10" guides="1" tooltips="1" connect="1" arrows="1" fold="1" page="1" pageScale="1" pageWidth="827" pageHeight="1169" math="0" shadow="0">
      <root>
        <mxCell id="0" />
        <mxCell id="1" parent="0" />
        <mxCell id="oZ9E88WySeWtFIgprQ5E-6" value="Frankfurt HBF" style="text;html=1;strokeColor=none;fillColor=none;align=center;verticalAlign=middle;whiteSpace=wrap;rounded=0;fontSize=14;fontStyle=1" vertex="1" parent="1">
          <mxGeometry y="320" width="160" height="30" as="geometry" />
        </mxCell>
        <mxCell id="oZ9E88WySeWtFIgprQ5E-7" value="Darmstadt HBF" style="text;html=1;strokeColor=none;fillColor=none;align=center;verticalAlign=middle;whiteSpace=wrap;rounded=0;fontSize=14;fontStyle=1" vertex="1" parent="1">
          <mxGeometry x="320" y="320" width="160" height="30" as="geometry" />
        </mxCell>
        <mxCell id="oZ9E88WySeWtFIgprQ5E-11" value="" style="rounded=1;whiteSpace=wrap;html=1;movable=0;resizable=0;rotatable=0;deletable=0;editable=0;locked=1;connectable=0;" vertex="1" parent="1">
          <mxGeometry x="40" y="40" width="80" height="280" as="geometry" />
        </mxCell>
        <mxCell id="oZ9E88WySeWtFIgprQ5E-12" value="" style="rounded=1;whiteSpace=wrap;html=1;movable=0;resizable=0;rotatable=0;deletable=0;editable=0;locked=1;connectable=0;" vertex="1" parent="1">
          <mxGeometry x="360" y="40" width="80" height="280" as="geometry" />
        </mxCell>
        <mxCell id="oZ9E88WySeWtFIgprQ5E-40" value="a" style="ellipse;whiteSpace=wrap;html=1;aspect=fixed;fillColor=#cce5ff;strokeColor=#36393d;" vertex="1" parent="1">
          <mxGeometry x="70" y="60" width="20" height="20" as="geometry" />
        </mxCell>
        <mxCell id="oZ9E88WySeWtFIgprQ5E-41" value="b" style="ellipse;whiteSpace=wrap;html=1;aspect=fixed;fillColor=#cdeb8b;strokeColor=#36393d;" vertex="1" parent="1">
          <mxGeometry x="70" y="140" width="20" height="20" as="geometry" />
        </mxCell>
        <mxCell id="oZ9E88WySeWtFIgprQ5E-42" value="c" style="ellipse;whiteSpace=wrap;html=1;aspect=fixed;fillColor=#cce5ff;strokeColor=#36393d;" vertex="1" parent="1">
          <mxGeometry x="70" y="180" width="20" height="20" as="geometry" />
        </mxCell>
        <mxCell id="oZ9E88WySeWtFIgprQ5E-43" value="e" style="ellipse;whiteSpace=wrap;html=1;aspect=fixed;fillColor=#cdeb8b;strokeColor=#36393d;" vertex="1" parent="1">
          <mxGeometry x="390" y="70" width="20" height="20" as="geometry" />
        </mxCell>
        <mxCell id="oZ9E88WySeWtFIgprQ5E-44" value="f" style="ellipse;whiteSpace=wrap;html=1;aspect=fixed;fillColor=#cce5ff;strokeColor=#36393d;" vertex="1" parent="1">
          <mxGeometry x="390" y="120" width="20" height="20" as="geometry" />
        </mxCell>
        <mxCell id="oZ9E88WySeWtFIgprQ5E-45" value="g" style="ellipse;whiteSpace=wrap;html=1;aspect=fixed;fillColor=#cdeb8b;strokeColor=#36393d;" vertex="1" parent="1">
          <mxGeometry x="390" y="200" width="20" height="20" as="geometry" />
        </mxCell>
        <mxCell id="oZ9E88WySeWtFIgprQ5E-47" value="" style="endArrow=classic;html=1;rounded=0;exitX=1;exitY=0.5;exitDx=0;exitDy=0;entryX=0;entryY=0.5;entryDx=0;entryDy=0;strokeWidth=2;" edge="1" parent="1" source="oZ9E88WySeWtFIgprQ5E-40" target="oZ9E88WySeWtFIgprQ5E-43">
          <mxGeometry width="50" height="50" relative="1" as="geometry">
            <mxPoint x="180" y="60" as="sourcePoint" />
            <mxPoint x="230" y="10" as="targetPoint" />
          </mxGeometry>
        </mxCell>
        <mxCell id="oZ9E88WySeWtFIgprQ5E-48" value="d" style="ellipse;whiteSpace=wrap;html=1;aspect=fixed;fillColor=#cdeb8b;strokeColor=#36393d;" vertex="1" parent="1">
          <mxGeometry x="70" y="280" width="20" height="20" as="geometry" />
        </mxCell>
        <mxCell id="oZ9E88WySeWtFIgprQ5E-49" value="" style="endArrow=classic;html=1;rounded=0;exitX=0;exitY=0.5;exitDx=0;exitDy=0;entryX=1;entryY=0.5;entryDx=0;entryDy=0;strokeWidth=2;" edge="1" parent="1" source="oZ9E88WySeWtFIgprQ5E-44" target="oZ9E88WySeWtFIgprQ5E-41">
          <mxGeometry width="50" height="50" relative="1" as="geometry">
            <mxPoint x="180" y="165" as="sourcePoint" />
            <mxPoint x="480" y="195" as="targetPoint" />
          </mxGeometry>
        </mxCell>
        <mxCell id="oZ9E88WySeWtFIgprQ5E-50" value="" style="endArrow=classic;html=1;rounded=0;exitX=1;exitY=0.5;exitDx=0;exitDy=0;entryX=0;entryY=0.5;entryDx=0;entryDy=0;strokeWidth=2;" edge="1" parent="1" source="oZ9E88WySeWtFIgprQ5E-42" target="oZ9E88WySeWtFIgprQ5E-45">
          <mxGeometry width="50" height="50" relative="1" as="geometry">
            <mxPoint x="200" y="240" as="sourcePoint" />
            <mxPoint x="250" y="190" as="targetPoint" />
          </mxGeometry>
        </mxCell>
        <mxCell id="oZ9E88WySeWtFIgprQ5E-51" value="h" style="ellipse;whiteSpace=wrap;html=1;aspect=fixed;fillColor=#cce5ff;strokeColor=#36393d;" vertex="1" parent="1">
          <mxGeometry x="390" y="250" width="20" height="20" as="geometry" />
        </mxCell>
        <mxCell id="oZ9E88WySeWtFIgprQ5E-52" value="" style="endArrow=classic;html=1;rounded=0;exitX=0;exitY=0.5;exitDx=0;exitDy=0;entryX=1;entryY=0.5;entryDx=0;entryDy=0;strokeColor=#050101;strokeWidth=2;fontColor=default;" edge="1" parent="1" source="oZ9E88WySeWtFIgprQ5E-51" target="oZ9E88WySeWtFIgprQ5E-48">
          <mxGeometry width="50" height="50" relative="1" as="geometry">
            <mxPoint x="100" y="200" as="sourcePoint" />
            <mxPoint x="400" y="220" as="targetPoint" />
          </mxGeometry>
        </mxCell>
        <mxCell id="oZ9E88WySeWtFIgprQ5E-62" value="" style="endArrow=classic;html=1;rounded=0;strokeWidth=2;" edge="1" parent="1">
          <mxGeometry width="50" height="50" relative="1" as="geometry">
            <mxPoint y="40" as="sourcePoint" />
            <mxPoint y="320" as="targetPoint" />
          </mxGeometry>
        </mxCell>
        <mxCell id="oZ9E88WySeWtFIgprQ5E-63" value="Zeit" style="text;html=1;strokeColor=none;fillColor=none;align=center;verticalAlign=middle;whiteSpace=wrap;rounded=0;fontSize=14;fontStyle=1" vertex="1" parent="1">
          <mxGeometry x="-50" y="165" width="60" height="30" as="geometry" />
        </mxCell>
        <mxCell id="oZ9E88WySeWtFIgprQ5E-65" value="" style="endArrow=classic;html=1;rounded=0;exitX=0.5;exitY=1;exitDx=0;exitDy=0;entryX=0.5;entryY=0;entryDx=0;entryDy=0;strokeWidth=2;strokeColor=#FF0505;" edge="1" parent="1" source="oZ9E88WySeWtFIgprQ5E-40" target="oZ9E88WySeWtFIgprQ5E-41">
          <mxGeometry width="50" height="50" relative="1" as="geometry">
            <mxPoint x="100" y="40" as="sourcePoint" />
            <mxPoint x="150" y="-10" as="targetPoint" />
          </mxGeometry>
        </mxCell>
        <mxCell id="oZ9E88WySeWtFIgprQ5E-66" value="" style="endArrow=classic;html=1;rounded=0;exitX=0.5;exitY=1;exitDx=0;exitDy=0;strokeWidth=2;strokeColor=#FF0505;" edge="1" parent="1">
          <mxGeometry width="50" height="50" relative="1" as="geometry">
            <mxPoint x="79.71000000000001" y="160" as="sourcePoint" />
            <mxPoint x="80" y="180" as="targetPoint" />
          </mxGeometry>
        </mxCell>
        <mxCell id="oZ9E88WySeWtFIgprQ5E-67" value="" style="endArrow=classic;html=1;rounded=0;exitX=0.5;exitY=1;exitDx=0;exitDy=0;entryX=0.5;entryY=0;entryDx=0;entryDy=0;strokeWidth=2;strokeColor=#FF0505;" edge="1" parent="1" source="oZ9E88WySeWtFIgprQ5E-42" target="oZ9E88WySeWtFIgprQ5E-48">
          <mxGeometry width="50" height="50" relative="1" as="geometry">
            <mxPoint x="89.71000000000001" y="170" as="sourcePoint" />
            <mxPoint x="90" y="190" as="targetPoint" />
          </mxGeometry>
        </mxCell>
        <mxCell id="oZ9E88WySeWtFIgprQ5E-68" value="" style="endArrow=classic;html=1;rounded=0;exitX=0.5;exitY=1;exitDx=0;exitDy=0;entryX=0.5;entryY=0;entryDx=0;entryDy=0;strokeWidth=2;strokeColor=#FF0505;" edge="1" parent="1" target="oZ9E88WySeWtFIgprQ5E-44">
          <mxGeometry width="50" height="50" relative="1" as="geometry">
            <mxPoint x="399.71" y="90" as="sourcePoint" />
            <mxPoint x="399.71" y="170" as="targetPoint" />
          </mxGeometry>
        </mxCell>
        <mxCell id="oZ9E88WySeWtFIgprQ5E-69" value="" style="endArrow=classic;html=1;rounded=0;exitX=0.5;exitY=1;exitDx=0;exitDy=0;entryX=0.5;entryY=0;entryDx=0;entryDy=0;strokeWidth=2;strokeColor=#FF0505;" edge="1" parent="1" source="oZ9E88WySeWtFIgprQ5E-44" target="oZ9E88WySeWtFIgprQ5E-45">
          <mxGeometry width="50" height="50" relative="1" as="geometry">
            <mxPoint x="409.71" y="100" as="sourcePoint" />
            <mxPoint x="410" y="130" as="targetPoint" />
          </mxGeometry>
        </mxCell>
        <mxCell id="oZ9E88WySeWtFIgprQ5E-70" value="" style="endArrow=classic;html=1;rounded=0;exitX=0.5;exitY=1;exitDx=0;exitDy=0;strokeWidth=2;strokeColor=#FF0505;" edge="1" parent="1" source="oZ9E88WySeWtFIgprQ5E-45">
          <mxGeometry width="50" height="50" relative="1" as="geometry">
            <mxPoint x="410" y="150" as="sourcePoint" />
            <mxPoint x="400" y="250" as="targetPoint" />
          </mxGeometry>
        </mxCell>
        <mxCell id="oZ9E88WySeWtFIgprQ5E-72" value="" style="endArrow=none;html=1;rounded=0;strokeWidth=2;strokeColor=#FF0505;" edge="1" parent="1">
          <mxGeometry width="50" height="50" relative="1" as="geometry">
            <mxPoint x="400" y="310" as="sourcePoint" />
            <mxPoint x="400" y="270" as="targetPoint" />
          </mxGeometry>
        </mxCell>
        <mxCell id="oZ9E88WySeWtFIgprQ5E-73" value="" style="endArrow=none;html=1;rounded=0;strokeWidth=2;strokeColor=#FF0505;" edge="1" parent="1">
          <mxGeometry width="50" height="50" relative="1" as="geometry">
            <mxPoint x="399.71" y="70" as="sourcePoint" />
            <mxPoint x="400" y="50" as="targetPoint" />
          </mxGeometry>
        </mxCell>
        <mxCell id="oZ9E88WySeWtFIgprQ5E-74" value="" style="endArrow=none;html=1;rounded=0;entryX=0.5;entryY=0;entryDx=0;entryDy=0;strokeWidth=2;strokeColor=#FF0505;" edge="1" parent="1" target="oZ9E88WySeWtFIgprQ5E-40">
          <mxGeometry width="50" height="50" relative="1" as="geometry">
            <mxPoint x="80" y="50" as="sourcePoint" />
            <mxPoint x="410" y="60" as="targetPoint" />
          </mxGeometry>
        </mxCell>
        <mxCell id="oZ9E88WySeWtFIgprQ5E-75" value="" style="endArrow=none;html=1;rounded=0;exitX=0.5;exitY=1;exitDx=0;exitDy=0;strokeWidth=2;strokeColor=#FF0505;" edge="1" parent="1" source="oZ9E88WySeWtFIgprQ5E-48">
          <mxGeometry width="50" height="50" relative="1" as="geometry">
            <mxPoint x="90" y="50" as="sourcePoint" />
            <mxPoint x="80" y="310" as="targetPoint" />
          </mxGeometry>
        </mxCell>
        <mxCell id="oZ9E88WySeWtFIgprQ5E-76" value="" style="verticalLabelPosition=bottom;shadow=0;dashed=0;align=center;html=1;verticalAlign=top;strokeWidth=2;shape=mxgraph.mockup.markup.curlyBrace;whiteSpace=wrap;strokeColor=#FF0505;rotation=90;fillColor=#FF0505;" vertex="1" parent="1">
          <mxGeometry x="384" y="160" width="80" height="20" as="geometry" />
        </mxCell>
        <mxCell id="oZ9E88WySeWtFIgprQ5E-77" value="t = t(g) - t(f)" style="text;html=1;strokeColor=none;fillColor=none;align=center;verticalAlign=middle;whiteSpace=wrap;rounded=0;fontSize=14;fontColor=#FF0000;fontStyle=1" vertex="1" parent="1">
          <mxGeometry x="420" y="155" width="120" height="30" as="geometry" />
        </mxCell>
      </root>
    </mxGraphModel>
  </diagram>
</mxfile>
